<svg xmlns="http://www.w3.org/2000/svg" xmlns:xlink="http://www.w3.org/1999/xlink" width="2125" zoomAndPan="magnify" viewBox="0 0 1593.75 288.749989" height="385" preserveAspectRatio="xMidYMid meet" version="1.2"><defs><clipPath id="3a11e42e1f"><path d="M 153 22 L 1100 22 L 1100 287.75 L 153 287.75 Z M 153 22 "/></clipPath><clipPath id="04c966b3dc"><path d="M 488 20.238281 L 1434 20.238281 L 1434 248 L 488 248 Z M 488 20.238281 "/></clipPath></defs><g id="6415231413"><g clip-rule="nonzero" clip-path="url(#3a11e42e1f)"><path style=" stroke:none;fill-rule:evenodd;fill:#fc7057;fill-opacity:1;" d="M 253.035156 23.847656 C 248.429688 25.226562 242.617188 30.726562 240.476562 35.734375 C 239.148438 38.839844 238.785156 48.910156 238.785156 82.703125 C 238.785156 124.085938 238.878906 125.816406 241.242188 128.175781 C 243.632812 130.570312 245.332031 130.632812 307.359375 130.632812 C 367.476562 130.632812 371.136719 130.507812 373.054688 128.386719 C 374.867188 126.386719 375.085938 121.359375 375.085938 82.140625 L 375.085938 38.140625 L 372.035156 32.929688 C 370 29.460938 367.207031 26.863281 363.664062 25.148438 C 358.515625 22.65625 356.730469 22.578125 307.46875 22.679688 C 279.484375 22.738281 254.988281 23.265625 253.035156 23.847656 M 429.21875 66.269531 C 424.832031 69.960938 422.949219 75.679688 424.40625 80.890625 C 425.085938 83.335938 435.203125 94.34375 454.585938 113.738281 L 483.738281 142.914062 L 410.933594 142.914062 C 330.738281 142.914062 332.953125 142.707031 328.929688 150.492188 C 326.5625 155.066406 327.277344 161.714844 330.519531 165.292969 C 335.894531 171.234375 334.804688 171.15625 410.941406 171.160156 L 482.53125 171.160156 L 458.402344 194.796875 C 431.820312 220.839844 430.707031 222.546875 434.851562 231.023438 C 436.304688 233.996094 438.765625 236.4375 441.824219 237.929688 C 450.605469 242.21875 451.644531 241.445312 492.527344 200.359375 C 532.199219 160.492188 532.9375 159.515625 529.390625 151.328125 C 528.34375 148.910156 510.171875 129.84375 485.382812 105.152344 C 443.53125 63.46875 443.109375 63.097656 438.070312 63.097656 C 434.398438 63.097656 431.945312 63.976562 429.21875 66.269531 M 166.949219 144.652344 C 162.375 146.695312 157.089844 152.242188 155.363281 156.808594 C 153.277344 162.328125 153.597656 259.769531 155.714844 264.84375 C 157.917969 270.113281 165.304688 276.457031 170.300781 277.371094 C 172.511719 277.773438 197.570312 277.941406 225.988281 277.738281 L 277.660156 277.371094 L 282.167969 273.933594 C 291.125 267.097656 290.929688 268.402344 291.355469 212.90625 C 291.613281 179.539062 291.300781 161.675781 290.402344 158.625 C 288.671875 152.738281 283.546875 146.703125 278.484375 144.585938 C 272.695312 142.171875 172.382812 142.230469 166.949219 144.652344 M 321.011719 187.425781 C 317.007812 189.445312 314.789062 191.664062 312.769531 195.667969 C 310.125 200.90625 310.003906 202.46875 310.003906 231.390625 C 310.003906 260.59375 310.101562 261.820312 312.832031 266.984375 C 314.765625 270.636719 317.355469 273.226562 321.007812 275.160156 C 326.257812 277.933594 327.050781 277.988281 364.453125 277.988281 C 400.566406 277.988281 402.828125 277.851562 407.84375 275.425781 C 410.753906 274.015625 414.382812 271.113281 415.90625 268.976562 C 418.613281 265.179688 418.6875 264.246094 419.035156 228.097656 L 419.394531 191.105469 L 415.5625 187.882812 L 411.738281 184.664062 L 369.113281 184.664062 C 327.351562 184.664062 326.378906 184.71875 321.011719 187.425781 M 1056.867188 352.320312 L 1057.492188 394.726562 L 1049.367188 386.890625 C 1027.136719 365.449219 986.027344 359.261719 954.222656 372.570312 C 924.554688 384.980469 905.539062 414.679688 905.566406 448.558594 C 905.59375 486.582031 926.929688 517.640625 960.84375 529.011719 C 975.652344 533.980469 997.4375 534.859375 1012.433594 531.097656 C 1027.742188 527.257812 1037.316406 521.972656 1047.75 511.605469 C 1052.679688 506.707031 1056.941406 502.699219 1057.226562 502.699219 C 1057.511719 502.699219 1057.898438 508.917969 1058.085938 516.515625 L 1058.433594 530.328125 L 1078.082031 529.902344 C 1088.886719 529.664062 1098.144531 529.21875 1098.648438 528.90625 C 1099.15625 528.59375 1099.570312 479.859375 1099.570312 420.601562 C 1099.570312 338.4375 1099.222656 312.511719 1098.097656 311.386719 C 1097.070312 310.359375 1090.5 309.914062 1076.433594 309.914062 L 1056.238281 309.914062 Z M 211.121094 322.46875 C 210.789062 323.332031 210.664062 370.175781 210.839844 426.566406 L 211.15625 529.101562 L 230.9375 529.4375 C 246.433594 529.699219 251.015625 529.410156 252.101562 528.101562 C 253.054688 526.953125 253.585938 513.628906 253.808594 485.402344 L 254.132812 444.371094 L 345.617188 443.730469 L 345.617188 485.34375 C 345.617188 519.28125 345.929688 527.21875 347.316406 528.367188 C 348.476562 529.332031 355.171875 529.671875 368.496094 529.4375 L 387.980469 529.101562 L 387.980469 321.578125 L 346.230469 321.578125 L 345.617188 362.714844 L 345 403.851562 L 254.132812 403.851562 L 252.90625 321.578125 L 232.3125 321.242188 C 216.507812 320.984375 211.578125 321.269531 211.121094 322.46875 M 863.4375 366.4375 C 849.425781 369.96875 834.773438 381.367188 827.171875 394.640625 L 823.308594 401.394531 L 823.296875 388.886719 C 823.289062 382.007812 822.742188 374.949219 822.074219 373.199219 L 820.867188 370.019531 L 800.894531 370.359375 L 780.921875 370.695312 L 780.605469 447.8125 C 780.394531 499.574219 780.710938 525.714844 781.570312 527.320312 C 782.75 529.53125 784.273438 529.714844 801.59375 529.714844 C 814.535156 529.714844 820.792969 529.257812 821.8125 528.242188 C 822.894531 527.160156 823.285156 516.777344 823.285156 489.171875 C 823.285156 467.230469 823.84375 448.542969 824.625 444.292969 C 828.761719 421.851562 844.621094 407.199219 866.121094 405.953125 C 874.597656 405.460938 884.59375 407.003906 892.199219 409.96875 C 895.375 411.207031 895.765625 408.078125 894.910156 388.332031 C 894.152344 370.785156 893.972656 369.789062 891.25 368.003906 C 887.769531 365.726562 870.191406 364.734375 863.4375 366.4375 M 473.78125 368.828125 C 446.035156 376.101562 425.0625 395.933594 415.960938 423.496094 C 413.175781 431.929688 412.707031 435.496094 412.648438 448.671875 C 412.566406 466.367188 414.398438 474.804688 421.445312 489.191406 C 428.15625 502.890625 443.359375 517.800781 457.6875 524.734375 C 503.003906 546.667969 554.550781 529.652344 574.671875 486.121094 C 585.789062 462.074219 585.230469 433.492188 573.1875 410.234375 C 569.984375 404.058594 565.449219 398.214844 558.109375 390.839844 C 546.179688 378.84375 535.933594 373.011719 519.480469 368.851562 C 506.640625 365.605469 486.105469 365.597656 473.78125 368.828125 M 657.003906 368.230469 C 631.488281 373.550781 609.261719 393.90625 608.113281 413.015625 L 607.78125 418.5 L 613.308594 419.292969 C 616.347656 419.730469 624.921875 420.460938 632.367188 420.921875 L 645.902344 421.753906 L 649.21875 414.988281 C 653.417969 406.425781 659.386719 402.308594 670.308594 400.4375 C 691.011719 396.890625 707.609375 406.960938 708.824219 423.808594 L 709.335938 430.882812 L 681.277344 433.820312 C 636.355469 438.523438 622.53125 442.378906 610.351562 453.609375 C 593.855469 468.816406 592.886719 498.394531 608.339844 515.296875 C 619.390625 527.386719 635.546875 533.769531 655.058594 533.75 C 675.300781 533.726562 689.414062 528.488281 701.757812 516.421875 L 708.886719 509.453125 L 709.316406 518.316406 C 709.550781 523.191406 710.292969 527.730469 710.964844 528.398438 C 712.558594 529.996094 748.261719 530.324219 749.828125 528.757812 C 750.570312 528.011719 750.828125 506.765625 750.515625 471.851562 C 749.976562 411.402344 749.847656 410.160156 742.785156 397.191406 C 736.023438 384.765625 720.859375 374.359375 702.332031 369.425781 C 691.929688 366.660156 667.625 366.015625 657.003906 368.230469 M 984.175781 401.519531 C 959.65625 408.109375 945.109375 431.605469 949.542969 457.457031 C 953.414062 480.046875 969.742188 495.390625 993.84375 499.09375 C 1018.492188 502.878906 1042.488281 491.523438 1052.363281 471.386719 C 1055.703125 464.582031 1055.980469 462.980469 1055.980469 450.449219 C 1055.980469 437.226562 1055.859375 436.636719 1051.347656 427.503906 C 1042.046875 408.6875 1025.09375 399.421875 1000.355469 399.632812 C 995.152344 399.679688 987.871094 400.527344 984.175781 401.519531 M 482.648438 403.9375 C 471.285156 408.101562 460.414062 420.511719 456.582031 433.691406 C 453.542969 444.144531 454.65625 463.1875 458.828125 472.214844 C 463.121094 481.5 470.820312 489.613281 479.285156 493.773438 C 485.328125 496.738281 487.628906 497.167969 497.265625 497.132812 C 506.789062 497.097656 509.289062 496.621094 515.335938 493.6875 C 533.101562 485.070312 543.636719 461.953125 539.851562 439.886719 C 536.964844 423.042969 526.828125 409.65625 513.058594 404.503906 C 505.097656 401.527344 490 401.246094 482.648438 403.9375 M 683.300781 460.898438 C 660.6875 463.574219 656.773438 464.332031 651.429688 467.070312 C 644.113281 470.824219 641.203125 474.878906 640.621094 482.121094 C 639.96875 490.242188 643.355469 495.878906 651.382812 500.019531 C 656.179688 502.5 658.261719 502.808594 667.335938 502.394531 C 678.964844 501.867188 686.308594 499.246094 694.632812 492.652344 C 703.191406 485.875 707.640625 477.265625 709.59375 463.710938 L 710.34375 458.492188 L 705.722656 458.640625 C 703.183594 458.722656 693.09375 459.738281 683.300781 460.898438 "/></g><g clip-rule="nonzero" clip-path="url(#04c966b3dc)"><path style=" stroke:none;fill-rule:evenodd;fill:#f2f1f2;fill-opacity:1;" d="M 587.210938 -262.515625 C 582.605469 -261.136719 576.792969 -255.636719 574.652344 -250.628906 C 573.324219 -247.523438 572.960938 -237.453125 572.960938 -203.660156 C 572.960938 -162.277344 573.054688 -160.546875 575.417969 -158.1875 C 577.808594 -155.792969 579.507812 -155.730469 641.535156 -155.730469 C 701.652344 -155.730469 705.3125 -155.855469 707.230469 -157.976562 C 709.042969 -159.976562 709.261719 -165.003906 709.261719 -204.222656 L 709.261719 -248.222656 L 706.210938 -253.433594 C 704.175781 -256.902344 701.386719 -259.5 697.839844 -261.214844 C 692.691406 -263.707031 690.90625 -263.785156 641.644531 -263.683594 C 613.660156 -263.625 589.167969 -263.097656 587.210938 -262.515625 M 763.394531 -220.09375 C 759.007812 -216.402344 757.125 -210.683594 758.582031 -205.472656 C 759.261719 -203.027344 769.378906 -192.019531 788.761719 -172.625 L 817.914062 -143.449219 L 745.109375 -143.449219 C 664.914062 -143.449219 667.128906 -143.65625 663.105469 -135.871094 C 660.742188 -131.296875 661.453125 -124.648438 664.695312 -121.070312 C 670.070312 -115.128906 668.980469 -115.207031 745.117188 -115.203125 L 816.707031 -115.203125 L 792.578125 -91.566406 C 765.996094 -65.527344 764.882812 -63.816406 769.027344 -55.339844 C 770.480469 -52.367188 772.945312 -49.925781 776 -48.433594 C 784.78125 -44.144531 785.820312 -44.917969 826.703125 -86.003906 C 866.375 -125.871094 867.113281 -126.847656 863.566406 -135.035156 C 862.523438 -137.453125 844.347656 -156.519531 819.558594 -181.210938 C 777.707031 -222.894531 777.285156 -223.265625 772.246094 -223.265625 C 768.574219 -223.265625 766.121094 -222.386719 763.394531 -220.09375 M 501.125 -141.710938 C 496.550781 -139.667969 491.265625 -134.125 489.539062 -129.554688 C 487.453125 -124.035156 487.773438 -26.59375 489.890625 -21.519531 C 492.09375 -16.25 499.480469 -9.90625 504.476562 -8.992188 C 506.6875 -8.589844 531.746094 -8.421875 560.164062 -8.625 L 611.835938 -8.992188 L 616.34375 -12.433594 C 625.300781 -19.265625 625.105469 -17.960938 625.53125 -73.457031 C 625.789062 -106.824219 625.476562 -124.6875 624.578125 -127.738281 C 622.847656 -133.625 617.722656 -139.660156 612.660156 -141.777344 C 606.871094 -144.195312 506.558594 -144.132812 501.125 -141.710938 M 655.1875 -98.9375 C 651.183594 -96.917969 648.964844 -94.699219 646.945312 -90.695312 C 644.300781 -85.457031 644.179688 -83.894531 644.179688 -54.972656 C 644.179688 -25.769531 644.277344 -24.542969 647.007812 -19.378906 C 648.941406 -15.726562 651.53125 -13.136719 655.183594 -11.203125 C 660.433594 -8.429688 661.226562 -8.378906 698.632812 -8.378906 C 734.742188 -8.378906 737.003906 -8.511719 742.019531 -10.9375 C 744.929688 -12.347656 748.558594 -15.25 750.082031 -17.386719 C 752.789062 -21.183594 752.863281 -22.117188 753.210938 -58.265625 L 753.570312 -95.257812 L 749.742188 -98.480469 L 745.914062 -101.699219 L 703.289062 -101.699219 C 661.527344 -101.699219 660.554688 -101.644531 655.1875 -98.9375 M 1391.042969 65.957031 L 1391.667969 108.363281 L 1383.542969 100.527344 C 1361.3125 79.085938 1320.203125 72.898438 1288.398438 86.207031 C 1258.730469 98.617188 1239.714844 128.316406 1239.742188 162.195312 C 1239.769531 200.21875 1261.109375 231.277344 1295.019531 242.648438 C 1309.828125 247.617188 1331.613281 248.496094 1346.609375 244.734375 C 1361.917969 240.894531 1371.492188 235.609375 1381.925781 225.242188 C 1386.855469 220.34375 1391.121094 216.335938 1391.402344 216.335938 C 1391.6875 216.335938 1392.074219 222.554688 1392.265625 230.152344 L 1392.613281 243.964844 L 1412.257812 243.539062 C 1423.0625 243.300781 1432.320312 242.855469 1432.828125 242.542969 C 1433.332031 242.230469 1433.746094 193.496094 1433.746094 134.238281 C 1433.746094 52.074219 1433.398438 26.144531 1432.273438 25.023438 C 1431.246094 23.996094 1424.675781 23.550781 1410.609375 23.550781 L 1390.414062 23.550781 Z M 545.296875 36.105469 C 544.964844 36.96875 544.839844 83.8125 545.015625 140.203125 L 545.332031 242.738281 L 565.113281 243.074219 C 580.609375 243.335938 585.191406 243.046875 586.277344 241.738281 C 587.230469 240.589844 587.765625 227.265625 587.984375 199.039062 L 588.308594 158.007812 L 679.792969 157.367188 L 679.792969 198.980469 C 679.792969 232.917969 680.105469 240.855469 681.492188 242.003906 C 682.652344 242.96875 689.347656 243.308594 702.671875 243.074219 L 722.15625 242.738281 L 722.15625 35.214844 L 680.40625 35.214844 L 679.179688 117.488281 L 588.308594 117.488281 L 587.082031 35.214844 L 566.488281 34.878906 C 550.683594 34.621094 545.753906 34.90625 545.296875 36.105469 M 1197.613281 80.074219 C 1183.601562 83.605469 1168.949219 95.003906 1161.351562 108.277344 L 1157.484375 115.03125 L 1157.472656 102.523438 C 1157.464844 95.644531 1156.917969 88.585938 1156.25 86.835938 L 1155.042969 83.65625 L 1135.070312 83.996094 L 1115.097656 84.332031 L 1114.78125 161.449219 C 1114.570312 213.210938 1114.886719 239.351562 1115.746094 240.957031 C 1116.925781 243.167969 1118.449219 243.351562 1135.769531 243.351562 C 1148.710938 243.351562 1154.96875 242.894531 1155.988281 241.878906 C 1157.070312 240.796875 1157.460938 230.410156 1157.460938 202.808594 C 1157.460938 180.867188 1158.019531 162.179688 1158.804688 157.929688 C 1162.9375 135.488281 1178.796875 120.835938 1200.296875 119.589844 C 1208.773438 119.097656 1218.769531 120.640625 1226.375 123.605469 C 1229.550781 124.84375 1229.941406 121.714844 1229.085938 101.96875 C 1228.328125 84.421875 1228.148438 83.425781 1225.425781 81.640625 C 1221.945312 79.363281 1204.367188 78.371094 1197.613281 80.074219 M 807.957031 82.464844 C 780.210938 89.738281 759.238281 109.570312 750.136719 137.132812 C 747.351562 145.566406 746.882812 149.132812 746.824219 162.308594 C 746.742188 180.003906 748.574219 188.441406 755.625 202.828125 C 762.332031 216.527344 777.535156 231.4375 791.863281 238.371094 C 837.179688 260.304688 888.726562 243.289062 908.847656 199.757812 C 919.964844 175.710938 919.40625 147.128906 907.363281 123.871094 C 904.164062 117.691406 899.625 111.851562 892.285156 104.476562 C 880.355469 92.480469 870.109375 86.648438 853.65625 82.488281 C 840.816406 79.242188 820.28125 79.234375 807.957031 82.464844 M 991.179688 81.867188 C 965.664062 87.1875 943.4375 107.542969 942.289062 126.652344 L 941.957031 132.136719 L 947.484375 132.929688 C 950.523438 133.367188 959.097656 134.097656 966.542969 134.554688 L 980.078125 135.390625 L 983.394531 128.625 C 987.59375 120.0625 993.5625 115.945312 1004.484375 114.074219 C 1025.1875 110.527344 1041.785156 120.597656 1043 137.445312 L 1043.515625 144.519531 L 1015.453125 147.457031 C 970.53125 152.160156 956.707031 156.015625 944.527344 167.246094 C 928.03125 182.453125 927.066406 212.03125 942.515625 228.933594 C 953.566406 241.023438 969.722656 247.40625 989.234375 247.386719 C 1009.476562 247.363281 1023.589844 242.125 1035.933594 230.058594 L 1043.0625 223.089844 L 1043.492188 231.953125 C 1043.726562 236.828125 1044.46875 241.367188 1045.140625 242.035156 C 1046.734375 243.632812 1082.4375 243.960938 1084.003906 242.394531 C 1084.75 241.648438 1085.003906 220.402344 1084.691406 185.488281 C 1084.152344 125.039062 1084.023438 123.796875 1076.964844 110.828125 C 1070.199219 98.402344 1055.035156 87.996094 1036.507812 83.0625 C 1026.105469 80.296875 1001.800781 79.652344 991.179688 81.867188 M 1318.351562 115.15625 C 1293.832031 121.746094 1279.285156 145.242188 1283.71875 171.09375 C 1287.589844 193.683594 1303.917969 209.027344 1328.019531 212.730469 C 1352.671875 216.515625 1376.664062 205.15625 1386.539062 185.023438 C 1389.878906 178.21875 1390.15625 176.617188 1390.15625 164.085938 C 1390.15625 150.863281 1390.035156 150.273438 1385.523438 141.140625 C 1376.222656 122.324219 1359.269531 113.058594 1334.53125 113.269531 C 1329.328125 113.3125 1322.050781 114.164062 1318.351562 115.15625 M 816.828125 117.574219 C 805.464844 121.738281 794.59375 134.148438 790.757812 147.328125 C 787.71875 157.78125 788.832031 176.824219 793.003906 185.851562 C 797.296875 195.136719 804.996094 203.25 813.464844 207.410156 C 819.503906 210.375 821.804688 210.804688 831.441406 210.769531 C 840.964844 210.734375 843.464844 210.257812 849.511719 207.324219 C 867.277344 198.707031 877.8125 175.589844 874.027344 153.523438 C 871.140625 136.679688 861.003906 123.292969 847.234375 118.140625 C 839.273438 115.164062 824.175781 114.882812 816.828125 117.574219 M 1017.476562 174.535156 C 994.863281 177.210938 990.949219 177.96875 985.605469 180.707031 C 978.289062 184.460938 975.378906 188.515625 974.796875 195.757812 C 974.144531 203.878906 977.53125 209.515625 985.558594 213.65625 C 990.355469 216.136719 992.4375 216.445312 1001.511719 216.03125 C 1013.140625 215.503906 1020.484375 212.882812 1028.8125 206.289062 C 1037.367188 199.511719 1041.816406 190.902344 1043.769531 177.347656 L 1044.519531 172.128906 L 1039.898438 172.277344 C 1037.359375 172.359375 1027.269531 173.375 1017.476562 174.535156 "/></g></g></svg>